<svg width="24" height="26" viewBox="0 0 24 26" fill="none" xmlns="http://www.w3.org/2000/svg">
<path d="M1 5.23529L22.3333 5.2353M17 25H6.33333C4.86057 25 3.66667 23.7359 3.66667 22.1765V6.64706C3.66667 5.86736 4.26362 5.23529 5 5.23529H18.3333C19.0697 5.23529 19.6667 5.86736 19.6667 6.64706V22.1765C19.6667 23.7359 18.4728 25 17 25ZM9 5.23529H14.3333C15.0697 5.23529 15.6667 4.60323 15.6667 3.82353V2.41176C15.6667 1.63207 15.0697 1 14.3333 1H9C8.26362 1 7.66667 1.63207 7.66667 2.41176V3.82353C7.66667 4.60323 8.26362 5.23529 9 5.23529Z" stroke="white" stroke-width="2" stroke-linecap="round"/>
</svg>
